HIERARCHY
ROOT Hips
{
	OFFSET -14.64140 90.27770 -84.91600
	CHANNELS 6 Xposition Yposition Zposition Zrotation Xrotation Yrotation
	JOINT Spine
	{
		OFFSET 0.00000 13.20850 -1.60436
		CHANNELS 3 Zrotation Xrotation Yrotation
		JOINT Spine1
		{
			OFFSET 0.00000 8.61716 0.00000
			CHANNELS 3 Zrotation Xrotation Yrotation
			JOINT Spine2
			{
				OFFSET 0.00000 8.61717 0.00000
				CHANNELS 3 Zrotation Xrotation Yrotation
				JOINT Spine3
				{
					OFFSET 0.00000 8.61717 0.00000
					CHANNELS 3 Zrotation Xrotation Yrotation
					JOINT Neck
					{
						OFFSET 0.00000 11.07920 1.10792
						CHANNELS 3 Zrotation Xrotation Yrotation
						JOINT Neck1
						{
							OFFSET 0.00000 7.08032 0.00000
							CHANNELS 3 Zrotation Xrotation Yrotation
							JOINT Head
							{
								OFFSET 0.00000 7.08031 0.00000
								CHANNELS 3 Zrotation Xrotation Yrotation
								End site
								{
									OFFSET 0.00000 0.00000 0.00000
								}
							}
						}
					}
					JOINT RightShoulder
					{
						OFFSET -0.01000 7.91373 5.19711
						CHANNELS 3 Zrotation Xrotation Yrotation
						JOINT RightArm
						{
							OFFSET -18.41580 0.00000 0.00000
							CHANNELS 3 Zrotation Xrotation Yrotation
							JOINT RightForeArm
							{
								OFFSET -29.11090 0.00000 0.00000
								CHANNELS 3 Zrotation Xrotation Yrotation
								JOINT RightHand
								{
									OFFSET -24.65040 0.00000 0.00000
									CHANNELS 3 Zrotation Xrotation Yrotation
									JOINT RightHandThumb1
									{
										OFFSET -5.35114 -0.85590 3.97906
										CHANNELS 3 Zrotation Xrotation Yrotation
										JOINT RightHandThumb2
										{
											OFFSET -4.52789 0.00000 0.00000
											CHANNELS 3 Zrotation Xrotation Yrotation
											JOINT RightHandThumb3
											{
												OFFSET -2.46976 0.00000 0.00000
												CHANNELS 3 Zrotation Xrotation Yrotation
												End site
												{
													OFFSET 0.00000 0.00000 0.00000
												}
											}
										}
									}
									JOINT RightHandIndex1
									{
										OFFSET -14.26970 0.00000 2.88139
										CHANNELS 3 Zrotation Xrotation Yrotation
										JOINT RightHandIndex2
										{
											OFFSET -5.48836 0.00000 0.00000
											CHANNELS 3 Zrotation Xrotation Yrotation
											JOINT RightHandIndex3
											{
												OFFSET -3.01859 0.00000 0.00000
												CHANNELS 3 Zrotation Xrotation Yrotation
												End site
												{
													OFFSET 0.00000 0.00000 0.00000
												}
											}
										}
									}
									JOINT RightHandMiddle1
									{
										OFFSET -14.26970 0.00000 -0.09147
										CHANNELS 3 Zrotation Xrotation Yrotation
										JOINT RightHandMiddle2
										{
											OFFSET -6.17441 0.00000 0.00000
											CHANNELS 3 Zrotation Xrotation Yrotation
											JOINT RightHandMiddle3
											{
												OFFSET -3.56743 0.00000 0.00000
												CHANNELS 3 Zrotation Xrotation Yrotation
												End site
												{
													OFFSET 0.00000 0.00000 0.00000
												}
											}
										}
									}
									JOINT RightHandRing1
									{
										OFFSET -12.69180 0.00000 -3.06433
										CHANNELS 3 Zrotation Xrotation Yrotation
										JOINT RightHandRing2
										{
											OFFSET -5.62556 0.00000 0.00000
											CHANNELS 3 Zrotation Xrotation Yrotation
											JOINT RightHandRing3
											{
												OFFSET -3.56744 0.00000 0.00000
												CHANNELS 3 Zrotation Xrotation Yrotation
												End site
												{
													OFFSET 0.00000 0.00000 0.00000
												}
											}
										}
									}
									JOINT RightHandPinky1
									{
										OFFSET -11.11390 0.00000 -6.03719
										CHANNELS 3 Zrotation Xrotation Yrotation
										JOINT RightHandPinky2
										{
											OFFSET -4.52789 0.00000 0.00000
											CHANNELS 3 Zrotation Xrotation Yrotation
											JOINT RightHandPinky3
											{
												OFFSET -2.46976 0.00000 0.00000
												CHANNELS 3 Zrotation Xrotation Yrotation
												End site
												{
													OFFSET 0.00000 0.00000 0.00000
												}
											}
										}
									}
								}
							}
						}
					}
					JOINT LeftShoulder
					{
						OFFSET 0.01000 7.91373 5.19711
						CHANNELS 3 Zrotation Xrotation Yrotation
						JOINT LeftArm
						{
							OFFSET 18.41580 0.00000 0.00000
							CHANNELS 3 Zrotation Xrotation Yrotation
							JOINT LeftForeArm
							{
								OFFSET 29.11090 0.00000 0.00000
								CHANNELS 3 Zrotation Xrotation Yrotation
								JOINT LeftHand
								{
									OFFSET 24.65040 0.00000 0.00000
									CHANNELS 3 Zrotation Xrotation Yrotation
									JOINT LeftHandThumb1
									{
										OFFSET 5.35114 -0.85590 3.97906
										CHANNELS 3 Zrotation Xrotation Yrotation
										JOINT LeftHandThumb2
										{
											OFFSET 4.52789 0.00000 0.00000
											CHANNELS 3 Zrotation Xrotation Yrotation
											JOINT LeftHandThumb3
											{
												OFFSET 2.46977 0.00000 0.00000
												CHANNELS 3 Zrotation Xrotation Yrotation
												End site
												{
													OFFSET 0.00000 0.00000 0.00000
												}
											}
										}
									}
									JOINT LeftHandIndex1
									{
										OFFSET 14.26970 0.00000 2.88139
										CHANNELS 3 Zrotation Xrotation Yrotation
										JOINT LeftHandIndex2
										{
											OFFSET 5.48836 0.00000 0.00000
											CHANNELS 3 Zrotation Xrotation Yrotation
											JOINT LeftHandIndex3
											{
												OFFSET 3.01859 0.00000 0.00000
												CHANNELS 3 Zrotation Xrotation Yrotation
												End site
												{
													OFFSET 0.00000 0.00000 0.00000
												}
											}
										}
									}
									JOINT LeftHandMiddle1
									{
										OFFSET 14.26970 0.00000 -0.09147
										CHANNELS 3 Zrotation Xrotation Yrotation
										JOINT LeftHandMiddle2
										{
											OFFSET 6.17440 0.00000 0.00000
											CHANNELS 3 Zrotation Xrotation Yrotation
											JOINT LeftHandMiddle3
											{
												OFFSET 3.56744 0.00000 0.00000
												CHANNELS 3 Zrotation Xrotation Yrotation
												End site
												{
													OFFSET 0.00000 0.00000 0.00000
												}
											}
										}
									}
									JOINT LeftHandRing1
									{
										OFFSET 12.69180 0.00000 -3.06433
										CHANNELS 3 Zrotation Xrotation Yrotation
										JOINT LeftHandRing2
										{
											OFFSET 5.62556 0.00000 0.00000
											CHANNELS 3 Zrotation Xrotation Yrotation
											JOINT LeftHandRing3
											{
												OFFSET 3.56744 0.00000 0.00000
												CHANNELS 3 Zrotation Xrotation Yrotation
												End site
												{
													OFFSET 0.00000 0.00000 0.00000
												}
											}
										}
									}
									JOINT LeftHandPinky1
									{
										OFFSET 11.11390 0.00000 -6.03719
										CHANNELS 3 Zrotation Xrotation Yrotation
										JOINT LeftHandPinky2
										{
											OFFSET 4.52789 0.00000 0.00000
											CHANNELS 3 Zrotation Xrotation Yrotation
											JOINT LeftHandPinky3
											{
												OFFSET 2.46976 0.00000 0.00000
												CHANNELS 3 Zrotation Xrotation Yrotation
												End site
												{
													OFFSET 0.00000 0.00000 0.00000
												}
											}
										}
									}
								}
							}
						}
					}
					JOINT pCube4
					{
						OFFSET 0.00000 10.91090 1.10792
						CHANNELS 3 Zrotation Xrotation Yrotation
						End site
						{
							OFFSET 0.00000 0.00000 0.00000
						}
					}
				}
			}
		}
	}
	JOINT RightUpLeg
	{
		OFFSET -9.98441 0.00000 0.00000
		CHANNELS 3 Zrotation Xrotation Yrotation
		JOINT RightLeg
		{
			OFFSET 0.00000 -42.11790 0.00000
			CHANNELS 3 Zrotation Xrotation Yrotation
			JOINT RightFoot
			{
				OFFSET 0.00000 -45.00020 -0.00001
				CHANNELS 3 Zrotation Xrotation Yrotation
				JOINT RightForeFoot
				{
					OFFSET 0.00000 -3.74820 0.00000
					CHANNELS 3 Zrotation Xrotation Yrotation
					JOINT RightToeBase
					{
						OFFSET 0.00000 0.06325 14.43120
						CHANNELS 3 Zrotation Xrotation Yrotation
						End site
						{
							OFFSET 0.00000 0.00000 0.00000
						}
					}
				}
			}
		}
	}
	JOINT LeftUpLeg
	{
		OFFSET 9.98441 0.00000 0.00000
		CHANNELS 3 Zrotation Xrotation Yrotation
		JOINT LeftLeg
		{
			OFFSET 0.00000 -42.11800 0.00000
			CHANNELS 3 Zrotation Xrotation Yrotation
			JOINT LeftFoot
			{
				OFFSET 0.00000 -45.00070 0.00000
				CHANNELS 3 Zrotation Xrotation Yrotation
				JOINT LeftForeFoot
				{
					OFFSET 0.00000 -3.74824 0.00000
					CHANNELS 3 Zrotation Xrotation Yrotation
					JOINT LeftToeBase
					{
						OFFSET 0.00000 0.06325 14.43110
						CHANNELS 3 Zrotation Xrotation Yrotation
						End site
						{
							OFFSET 0.00000 0.00000 0.00000
						}
					}
				}
			}
		}
	}
}
MOTION
Frames: 4
Frame Time: 0.050000
0.014460059845713406 -0.017463168599113805 -0.025479632198021507 0.048423871238457664 0.002695832610738668 0.005714955473227067 -3.702490569741379 3.0566168359244754 -0.6600890098144857 -0.7898989876807485 3.301723001158945 0.3178526170888505 -1.022369911688252 -1.3200322902888089 -2.256026187476581 -0.3067598199123165 0.38804657393626085 -1.0764040428980413 -0.8469460528173575 10.473710605842069 1.5448546162938783 -0.10998036051333418 -0.7986283113588254 1.7180187902308846 -0.47259566480300597 -15.767238446756084 0.17044349106876452 0.494627902845968 0.6148518093272674 -11.371201034454453 69.13111561516408 23.72814845706063 9.107363442283244 20.51923430876886 5.847955567149514 81.87446006742876 25.624044754122465 -0.18921591541834812 -6.318484033366687 4.552983106706239 -0.11395942083578496 -1.548052949925135 -0.047564885496849826 -0.018599945182016634 -56.23534630239917 -0.041040052753542514 -0.037501328977285246 -56.25822694271421 -38.78224303970246 -0.0068262891543138665 0.03763954964710503 0.043130449321436656 0.018363447211793206 -0.026543382037049496 -0.014250086243977757 -0.005684170104763052 -0.03302211003307033 -36.73428257355679 -0.008073256699345997 -0.021916642474922064 -0.012007084828854708 -0.032155047229523157 -0.03422760422322396 -0.008521653713411223 -0.020340619177938616 0.020245603811555206 -19.741622449539886 -0.0023049639999112408 0.015413027222363793 0.024686113610918145 -0.04143319016275258 -0.02616576792287105 -0.010717179553834269 -0.006787974354516037 -0.043413648767963386 24.09229222848476 -0.034392492096390226 -0.005985336728352719 28.899498222977844 0.02977804557343781 -0.042994384667243965 28.895160936231402 0.0029675870943677344 0.02124251574116236 3.6355369420841765 1.1646001649077191 9.929862621834113 -62.81747695013483 26.176832346633557 -21.581248878526768 -42.08724098533232 6.454190292167012 -82.03490278840414 -16.231358048055167 1.4981130160340395 -0.7555440193827999 -0.43078705779159876 0.05706964267176113 -8.135875788153966 -0.03442569152867359 -0.03367008433954817 44.5390356670177 -0.006867757643216171 -0.03447132345999018 44.602986051064676 12.488330678032808 -0.013541367161319958 -0.004487687391408794 -0.02756264645815865 0.028255379790765756 -0.013792742946629235 -0.020033828965274336 0.03212615611228961 0.024260357035154438 11.128609434020797 0.045338487899948786 0.03230484717977267 -0.020767888340451037 0.03497082659597383 -0.043697654820301704 -0.03981868795696672 0.0010217769917884281 -0.0364685760699542 4.776069905455766 0.04278905511534959 0.0016584185366694004 0.01433113083072033 0.035434771151407564 -0.00045337578311355285 -0.01129401808695292 0.004098929457040424 -0.0014456697186529047 -5.583538720021624 -0.02844900511880582 0.033479369042725304 -6.719667869808684 0.02348592699808669 0.016245113963371777 -6.680271350049861 -0.04285850471131001 -0.02756117650474266 0.04034007883562629 -0.03941722211475597 -0.04815902892598715 8.02218530905596 3.494286997546016 -19.192181904549983 0.004942038029836702 10.39789894834878 0.057310170650826595 -5.612406683336867 -15.645093643435565 3.2363893743711536 -0.042890588540691756 0.005335103432527963 0.014028253756009069 -0.03876945376820684 4.65910608185509 -0.03377817021450053 12.467953236743266 -8.261645169115555 6.886278918099726 -0.028032809455349868 46.41092665590036 -0.02272065039288619 -4.313475805538424 -14.74454070915171 -3.8121736089068485 -0.02386290814488843 0.013084274392550487 -0.007996438111411914 0.02570867271770316 -10.794952268869343 -0.016534885621287805 
0.04468632196351524 0.004416726415767943 -0.003228296771119637 0.004942305524350956 0.04747213636368636 -0.0032588020700237024 -3.802410816333262 3.0945854431956805 -0.6368496396414275 -0.8095446469892043 3.3881166353050953 0.3855913264588213 -0.9756520829639264 -1.375845678138111 -1.9219162041080218 -0.36652406696388506 0.4283623603272537 -1.006254656937704 -0.7548829707345609 10.370154077284925 1.5375860650695508 -0.16011302895579094 -0.87627730178868 1.654050628347769 -0.4962470220002115 -15.895048244242147 0.1611401005315808 0.43121138484583893 0.643326933522077 -11.626395873707308 69.62695854719196 24.212891723874613 7.098966642206264 16.409881602446703 5.743214067477422 75.36454477681362 26.09029563602319 -0.1928919767070272 -5.9617304610659945 4.574713251949256 -0.17140931927790715 -1.6003566442571067 -0.011139317686702274 -0.008415199872261853 -56.2644872338922 -0.02375923245295774 -0.0013202540115857038 -56.238505070167676 -38.74009857724076 -0.007412554546339127 -0.031777727319006216 -0.04008712540670119 -0.01971397531403944 0.020299691476321574 0.02617281527854452 0.037564670685556606 -0.04191339918235829 -36.66038965556557 -0.02392218602429805 -0.005759476146039078 -0.0398663016860275 0.008245506095409461 -0.011072853394748543 -0.00334070183756935 -0.005285113000546796 0.030802917275036538 -19.775951025425037 0.0029718268445516846 0.02814907478275278 0.0023895250094121425 0.011083882451772782 -0.049284391965202505 -0.04187197877573224 0.001414037150676136 0.00711586224006758 24.083223011150043 -0.021545761259061037 0.027039301097079207 28.9062780328889 -0.01794785245591516 -0.029472780768696943 28.86200358080118 -0.0002940274168227794 0.03210330623908003 3.0561129443385666 1.0808284256405336 10.360208864029751 -64.83548661895344 25.953442153026195 -16.8118884598535 -39.00226386480908 6.884581070658823 -75.80700012659679 -15.83434469423256 1.9871809616771203 -0.7534328627322823 -0.45434556860328995 0.06158070732715798 -8.107241532664064 0.006025163482881326 0.02507143243034928 44.53729627776234 -0.0171359671993722 0.03045068607384721 44.61682581620106 12.486157493527237 -0.002115543997698351 0.030916194841607122 -0.024252298211786493 0.03205574848046241 -0.02948688786519612 -0.004936042053821931 0.010504200658037897 -0.019086827500655892 11.071621188291676 -0.03030066379734811 -0.008855259054758311 -0.0037285399836987703 -0.004604173833191166 -0.03827643300319124 0.0015769601847468887 -0.008007859722639867 -0.0213156089542462 4.745111054276697 -0.047985397167138344 0.02525062214793184 0.031838623665415774 0.024743227712944696 0.010662995431311412 0.005557068824009387 -0.0273865147878985 -0.013087556962646543 -5.567103651088569 0.013428376251681806 -0.0002547859852001466 -6.7037907889712285 0.015303583325376973 -0.04432410937349682 -6.7515080279338635 -0.013638481957528238 0.022693133308699997 0.016542758059783523 -0.010325946509956727 0.0460728462202388 8.047049471775667 3.4920395285564134 -19.247580513266513 -0.01473318808680964 10.417767896679763 0.020636856831357617 -5.621799756832728 -15.70334810995178 3.1660964673274896 0.012216001528419273 -0.03960367144143207 -0.029862018562123165 -0.031067360602243816 4.707171972513291 0.03700764042351576 12.477879654397563 -8.278577342401404 6.8552411996083675 0.02007532578230237 46.428356538706524 -0.0015258438268521675 -4.340710908097672 -14.787922472986669 -3.852206763226744 0.0011348739833402094 -0.03896248573124856 0.0011490986662820093 0.035937220104222144 -10.755168877689156 0.009952700060236597 
0.0016326537801870879 -0.017769483051724624 -0.005557473027975216 0.03821295908464051 0.02050696590710277 -0.0247404409847544 -3.8536663804509925 2.9433749231717923 -0.6189161577164138 -0.7906970931817743 3.3493139250037482 0.32708215123975554 -1.01827445824595 -1.3806952556805983 -1.620786373822751 -0.44725015840309956 0.4467222622099839 -0.9507547897349796 -0.68266624330407 10.319677513330722 1.6385532012320305 -0.11646862777764472 -0.9513298796536036 1.5283555811055904 -0.4741588705126007 -15.989619694884231 0.14750851079224864 0.24677008029512346 0.7291608252174286 -11.882464800842941 70.00988555266238 24.615785003078322 5.508789902841693 13.07016377433281 5.194177974050625 69.91857072845106 26.57206211246671 -0.18886470176528294 -5.687558383263093 4.522040148883161 -0.1713208536542841 -1.5468948269534166 -0.007709554985023969 0.02248363160612658 -56.19804995025375 -0.023634041406324413 0.015843062135090565 -56.27008826156707 -38.76504366883707 -0.020285615661488298 0.03803922865679815 -0.044241960653765226 -0.022786536866129668 0.03541651446039243 -0.02130928151391692 -0.030778460970168838 -0.03465895225346871 -36.70745348705705 -0.010244456775997671 0.03278160659796268 0.010873568511060663 -0.0032914261429754046 0.01917542698331036 0.021381608901578097 -0.020434077959052898 -0.01425835922755485 -19.7337850749114 0.03236261436750134 0.030825919883720892 0.04148443122481642 -0.027050149951256423 0.027179344803645904 0.007810182882393692 0.015692457635115006 -0.015933169589717737 24.02853667233464 0.0046341694626288454 -0.04433974988980218 28.86560785807076 -0.0030339684106178945 0.029444956860774647 28.89616323252104 -0.027960486619790535 0.020462268962531612 2.653861379491417 0.9380909179847207 10.67379178105203 -66.64126171304427 25.730437639782547 -13.0180972519355 -36.99981052638844 7.048888141242507 -70.39793762810046 -15.669946916318352 2.1701486559261887 -0.7080001015167934 -0.42911112567762133 0.04825625232988448 -8.10414039687131 -0.028979809045206348 -0.02266574319109952 44.602082615173565 0.04209248675386266 -0.00827302873527087 44.601996677399896 12.415467741708712 -0.04264879284317513 0.020904927019673506 -0.04464680941970526 -0.028943633409546046 -0.019146134723342374 -0.014016853674806257 0.00793039450722204 0.007763245114244439 11.132101437473715 -0.012685623995555855 -0.03319334129912535 -0.03050309931596065 0.009120655845731669 -0.0022017947235696477 0.0275095092144267 0.03945526334929483 0.002335370858091587 4.744807718622345 -0.041370165728914304 0.0102175419198643 -0.021021469864439445 0.01835884145268372 0.043582352321594846 0.03911428020167136 -0.011363133044903483 -0.01469030848404151 -5.57755731784031 0.004940177169954757 -0.004955458717343655 -6.74539056604814 -0.030821675349020233 -0.04944552231554111 -6.710253817123408 -0.005019821221152002 -0.03986389241361378 0.008843742667131662 -0.01780284398929399 0.0025057901123640906 8.08260167975751 3.4618898472699757 -19.208871155459093 -0.03140937204948027 10.3867009187347 -0.02499271903547044 -5.5841632067199285 -15.693569224900996 3.146980993399582 -0.00042463224234925057 0.019059668673475742 0.012149102584310125 -0.018638004483799833 4.664513023066159 -0.024511966325536923 12.495459415342594 -8.240765326879119 6.922408257470747 -0.009257807933970139 46.4179004782672 -0.036658488933271685 -4.296959047694752 -14.733109447648683 -3.8130311612386767 -0.01653785848101136 0.048998145393083364 -0.02313967307994954 0.02352684721733395 -10.729832869494235 -0.040366663070945774 
0.02612511157847959 -0.039121072052730695 -0.02214215025192062 0.009551756131883436 -0.006523324441270559 0.00031047818217776733 -3.7975918446097494 2.829664226910241 -0.5734786630850293 -0.8683747527556377 3.406881076579649 0.34485454206767496 -1.0911874522654101 -1.4522034417153482 -1.5061436994012933 -0.40429092585294457 0.4514550382889814 -0.8854602233134163 -0.6416870696420178 10.356028704611301 1.5584371123531868 -0.11587182805256474 -0.9918595878816735 1.2613887554908423 -0.4572720706934403 -15.909460479546016 0.10700888885059545 -0.015350676545571078 0.7857479169911452 -12.154447837555582 70.39843305531215 24.53253049096021 4.283613786418008 9.820025532258203 3.8316884303647285 66.9642615438555 26.385912040687664 -0.25717137745218305 -5.329443078770219 4.503519680850665 -0.10388488217905217 -1.5892779362035931 -0.04867720004107596 0.018351619771934183 -56.20366913681949 -0.028350970855217712 0.0037981169812116296 -56.26127332239254 -38.728143103273325 0.04822010138409029 -0.018696111394383538 0.023111556985986492 0.041837253970979926 -0.04696217348268248 0.018419681990900997 0.012175192082667772 -0.037094777108544 -36.71627457540482 -0.009277260877922048 0.029420871301653807 -0.04431907710945102 -0.001302112645754648 -0.0331285705241478 0.007666412300129739 -0.023706519505943557 0.00878143084997737 -19.804763191616075 -0.0264638435157181 -0.03946191826454894 -0.037879350617530214 0.01238094987358748 0.04983813571121927 0.03504687923730061 -0.016323787190570885 -0.040988671799883455 24.06842440489515 -0.004173892074873259 -0.03655814933123242 28.901265357135536 0.010681233117739046 -0.04972426247035569 28.900359977916565 0.02655715896396297 -0.03157716055263662 2.627145477735379 0.8991274128713775 10.912776076543652 -67.80669460852718 25.86510023842469 -10.70931760745883 -34.08919174622484 6.384994140722318 -66.47039505262299 -15.042161360254402 2.234102664309945 -0.5863959099102167 -0.4525552867775019 0.10240647317120477 -8.10809826690198 0.01001778492259084 0.039703867367112594 44.54390495774173 -0.010344138706459817 -0.03413829916836248 44.55662438151298 12.448190722694596 -0.0301308692791643 0.03189892456862227 -0.018320206308990464 -0.0014110700519390123 0.03864631114776812 -0.02010260064853109 0.01056440409871791 0.0006570478991233438 11.152964773865946 -0.03641526203397213 -0.01311221839596568 -0.0442618531761489 0.030090467864110633 -0.00523498729070597 0.0382105516167383 0.02684794726035228 -0.014871157052497194 4.74695982874267 -0.03164707109194596 0.001708630075488356 -0.021150231066068562 -0.02231296367953607 -0.04090495227750285 -0.04868633228117446 -0.009169648387036884 0.037366874030707486 -5.572579738496483 0.04143156554324817 -0.027647889662149094 -6.705906529681056 0.03829303754133102 0.0064223517278526755 -6.7271004117505795 0.0032972784024538865 -0.04270346917046732 0.03088612793830291 0.005821623225023397 0.018180607113526596 8.074060080485776 3.4758476721808633 -19.209210363779206 -0.03831765974636918 10.399258486956606 0.0014564789741320534 -5.609049142205524 -15.686901067887632 3.2392777027978745 0.03686430510490601 -0.027570104495561725 0.018249053341021414 0.006626408479479027 4.679031926443827 -0.013771306611823199 12.434769677157183 -8.237236972633799 6.892443967749004 -0.016206305671406563 46.41898407160358 0.00959026608592369 -4.2989559984214685 -14.728771302150308 -3.82870826848533 0.015892535729752612 -0.02364736600549457 0.00604859464407757 -2.2350425437539958e-05 -10.723514224584711 -0.034017072538514236 
